<?xml version="1.0" encoding="UTF-8" standalone="no"?>
<svg
   xmlns:dc="http://purl.org/dc/elements/1.1/"
   xmlns:cc="http://creativecommons.org/ns#"
   xmlns:rdf="http://www.w3.org/1999/02/22-rdf-syntax-ns#"
   xmlns:svg="http://www.w3.org/2000/svg"
   xmlns="http://www.w3.org/2000/svg"
   xmlns:sodipodi="http://sodipodi.sourceforge.net/DTD/sodipodi-0.dtd"
   xmlns:inkscape="http://www.inkscape.org/namespaces/inkscape"
   version="1.1"
   width="1024"
   height="1024"
   id="svg412"
   viewBox="0 0 1024 1024"
   sodipodi:docname="logo_versa_1024.svg"
   inkscape:version="0.92.5 (2060ec1f9f, 2020-04-08)">
  <metadata
     id="metadata416">
    <rdf:RDF>
      <cc:Work
         rdf:about="">
        <dc:format>image/svg+xml</dc:format>
        <dc:type
           rdf:resource="http://purl.org/dc/dcmitype/StillImage" />
        <dc:title></dc:title>
      </cc:Work>
    </rdf:RDF>
  </metadata>
  <sodipodi:namedview
     pagecolor="#ffffff"
     bordercolor="#666666"
     borderopacity="1"
     objecttolerance="10"
     gridtolerance="10"
     guidetolerance="10"
     inkscape:pageopacity="0"
     inkscape:pageshadow="2"
     inkscape:window-width="1864"
     inkscape:window-height="1016"
     id="namedview414"
     showgrid="false"
     inkscape:snap-path-clip="true"
     inkscape:zoom="0.41604672"
     inkscape:cx="163.37078"
     inkscape:cy="414.39713"
     inkscape:window-x="56"
     inkscape:window-y="27"
     inkscape:window-maximized="1"
     inkscape:current-layer="layer1" />
  <defs
     id="defs393">
    <linearGradient
       id="grad1"
       gradientTransform="matrix(5.5428047,0,0,3.1321838,-1230.149,-663.93242)"
       x1="374.1749"
       y1="356.58997"
       x2="402.84814"
       y2="356.58997"
       gradientUnits="userSpaceOnUse">
      <stop
         offset="0.0000%"
         stop-color="#fec200"
         stop-opacity="0.0000"
         id="stop386" />
      <stop
         offset="34.0000%"
         stop-color="#f29100"
         stop-opacity="0.0000"
         id="stop388" />
      <stop
         offset="100.0000%"
         stop-color="#e9590f"
         stop-opacity="0.0000"
         id="stop390" />
    </linearGradient>
  </defs>
  <defs
     id="defs406">
    <linearGradient
       id="grad2"
       gradientTransform="matrix(4.2724949,0,0,4.0634534,-1230.149,-663.93242)"
       x1="476.81461"
       y1="245.37331"
       x2="528.40924"
       y2="245.37331"
       gradientUnits="userSpaceOnUse">
      <stop
         offset="0.0000%"
         stop-color="#e9590f"
         stop-opacity="0.0000"
         id="stop399" />
      <stop
         offset="66.0000%"
         stop-color="#f29100"
         stop-opacity="0.0000"
         id="stop401" />
      <stop
         offset="100.0000%"
         stop-color="#fec200"
         stop-opacity="0.0000"
         id="stop403" />
    </linearGradient>
  </defs>
  <g
     inkscape:groupmode="layer"
     id="layer1"
     inkscape:label="Layer 1">
    <g
       id="g1246"
       transform="translate(-3.4775107,28.994025)">
      <path
         inkscape:connector-curvature="0"
         id="path348"
         style="fill:#000200;fill-rule:evenodd;stroke-width:4.16666317"
         d="m 538.91042,608.69441 c 8.61707,0 13.56082,-3.66999 13.56082,-11.24915 0,-7.33958 -4.94375,-10.84791 -13.56082,-10.84791 h -13.24291 v 22.09706 z m 2.55125,8.37375 c -0.79459,0.0808 -1.67,0.0808 -2.55125,0.0808 h -13.24291 v 16.83207 h -9.41166 v -55.84079 h 22.65457 c 14.2804,0 22.4954,6.94 22.4954,19.0679 0,8.93458 -4.14375,15.23416 -11.56416,18.10582 l 12.52374,18.66707 h -10.69166 z" />
      <path
         inkscape:connector-curvature="0"
         id="path350"
         style="fill:#000200;fill-rule:evenodd;stroke-width:4.16666317"
         d="m 589.73663,608.69441 h 12.44915 c 8.61375,0 13.47666,-3.66999 13.47666,-11.24915 0,-7.33958 -4.86291,-10.84791 -13.47666,-10.84791 h -12.44915 z m 12.8479,-30.55414 c 14.04082,0 22.09373,6.94 22.09373,19.0679 0,12.60124 -8.05291,19.94082 -22.09373,19.94082 h -12.8479 v 16.83207 h -9.41416 v -55.84079 z" />
      <path
         inkscape:connector-curvature="0"
         id="path352"
         style="fill:#000200;fill-rule:evenodd;stroke-width:4.16666317"
         d="m 645.35241,606.05983 c 0,11.08749 9.17208,19.86582 20.10332,19.86582 10.92833,0 19.86332,-8.77833 19.86332,-19.86582 0,-11.0879 -8.93499,-19.70456 -19.86332,-19.70456 -11.00957,0 -20.10332,8.61666 -20.10332,19.70456 z m 49.61788,0 c 0,15.95624 -12.92249,28.3204 -29.59539,28.3204 -16.67041,0 -29.59581,-12.36416 -29.59581,-28.3204 0,-16.03165 12.9254,-28.15956 29.59581,-28.15956 16.6729,0 29.59539,12.20624 29.59539,28.15956 z" />
      <path
         inkscape:connector-curvature="0"
         id="path354"
         style="fill:#000200;fill-rule:evenodd;stroke-width:4.16666317"
         d="m 734.07272,608.69441 c 8.6167,0 13.5604,-3.66999 13.5604,-11.24915 0,-7.33958 -4.9437,-10.84791 -13.5604,-10.84791 h -13.2429 v 22.09706 z m 2.5513,8.37375 c -0.7946,0.0808 -1.67,0.0808 -2.5513,0.0808 h -13.2429 v 16.83207 h -9.4116 v -55.84079 h 22.6545 c 14.2804,0 22.4954,6.94 22.4954,19.0679 0,8.93458 -4.1433,15.23416 -11.5641,18.10582 l 12.5237,18.66707 h -10.6916 z" />
      <path
         inkscape:connector-curvature="0"
         id="path356"
         style="fill:#000200;fill-rule:evenodd;stroke-width:4.16666317"
         d="m 797.42642,588.18985 -10.53,24.81331 h 21.0592 z m -14.0412,33.18705 -5.3454,12.60499 h -9.8138 l 24.6517,-55.84162 h 9.6537 l 24.4088,55.84162 h -10.05 l -5.3454,-12.60499 z" />
      <path
         inkscape:connector-curvature="0"
         id="path358"
         style="fill:#000200;fill-rule:evenodd;stroke-width:4.16666317"
         d="m 855.67312,586.59652 v 47.38704 h -9.4142 v -47.38704 h -17.6267 v -8.45791 h 44.7517 v 8.45791 z" />
      <path
         inkscape:connector-curvature="0"
         id="path360"
         style="fill:#000200;fill-rule:evenodd;stroke-width:4.16666317"
         d="m 887.83092,578.14027 h 9.4142 v 55.84162 h -9.4142 z" />
      <path
         inkscape:connector-curvature="0"
         id="path362"
         style="fill:#000200;fill-rule:evenodd;stroke-width:4.16666317"
         d="m 933.46632,633.98189 -22.2558,-55.84162 h 10.1279 l 17.2333,45.38955 17.3896,-45.38955 h 9.8133 l -22.5762,55.84162 z" />
      <path
         inkscape:connector-curvature="0"
         id="path364"
         style="fill:#000200;fill-rule:evenodd;stroke-width:4.16666317"
         d="m 997.77632,588.18985 -10.53,24.81331 h 21.05908 z m -14.0408,33.18705 -5.3459,12.60499 h -9.8129 l 24.6508,-55.84162 h 9.65418 l 24.4083,55.84162 h -10.0496 l -5.3458,-12.60499 z" />
      <path
         inkscape:connector-curvature="0"
         id="path366"
         style="fill:#000200;fill-rule:evenodd;stroke-width:4.16666317"
         d="m 263.88022,586.59652 v 47.38704 h -9.41415 v -47.38704 h -17.62666 v -8.45791 h 44.75163 v 8.45791 z" />
      <path
         inkscape:connector-curvature="0"
         id="path368"
         style="fill:#000200;fill-rule:evenodd;stroke-width:4.16666317"
         d="M 311.19852,633.98189 288.9427,578.14027 h 10.12791 l 17.23416,45.38955 17.38915,-45.38955 h 9.81291 l -22.57624,55.84162 z" />
      <path
         inkscape:connector-curvature="0"
         id="path370"
         style="fill:#000200;fill-rule:evenodd;stroke-width:4.16666317"
         d="m 430.39301,586.51485 -5.50458,6.86291 c -4.06583,-4.38958 -9.89124,-7.09999 -15.55457,-7.09999 -11.16833,0 -19.94457,8.61374 -19.94457,19.6229 0,11.00957 8.77624,19.70456 19.94457,19.70456 5.58541,0 11.32707,-2.55458 15.55457,-6.61957 l 5.58291,6.22082 c -5.66125,5.58208 -13.71999,9.17458 -21.61457,9.17458 -16.35832,0 -29.04039,-12.36499 -29.04039,-28.40206 0,-15.87249 12.84416,-28.07873 29.35498,-28.07873 7.90041,0 15.79498,3.27125 21.22165,8.61458 z" />
      <path
         inkscape:connector-curvature="0"
         id="path372"
         style="fill:#000200;fill-rule:evenodd;stroke-width:4.16666317"
         d="m 450.19007,606.05983 c 0,11.08749 9.17208,19.86582 20.10332,19.86582 10.92874,0 19.86332,-8.77833 19.86332,-19.86582 0,-11.0879 -8.93458,-19.70456 -19.86332,-19.70456 -11.00957,0 -20.10332,8.61666 -20.10332,19.70456 z m 49.61788,0 c 0,15.95624 -12.92249,28.3204 -29.59539,28.3204 -16.67041,0 -29.5954,-12.36416 -29.5954,-28.3204 0,-16.03165 12.92499,-28.15956 29.5954,-28.15956 16.6729,0 29.59539,12.20624 29.59539,28.15956 z" />
      <path
         inkscape:connector-curvature="0"
         id="path374"
         style="fill:#000200;fill-rule:evenodd;stroke-width:4.16666317"
         d="M 87.039541,542.78447 3.4775214,333.12922 H 41.513321 l 64.695369,170.41986 65.29244,-170.41986 h 36.83914 l -84.76076,209.65525 z" />
      <path
         inkscape:connector-curvature="0"
         id="path376"
         style="fill:#000200;fill-rule:evenodd;stroke-width:4.16666317"
         d="M 390.13679,333.12797 H 236.78733 v 31.74789 h 153.34946 z" />
      <path
         inkscape:connector-curvature="0"
         id="path378"
         style="fill:#000200;fill-rule:evenodd;stroke-width:4.16666317"
         d="M 390.13679,421.48457 H 236.78733 v 31.74789 h 153.34946 z" />
      <path
         inkscape:connector-curvature="0"
         id="path380"
         style="fill:#000200;fill-rule:evenodd;stroke-width:4.16666317"
         d="M 236.78733,542.7853 H 390.13679 V 511.03741 H 236.78733 Z" />
      <path
         inkscape:connector-curvature="0"
         id="path382"
         style="fill:#000200;fill-rule:evenodd;stroke-width:4.16666317"
         d="m 792.06692,353.19629 -14.675,31.14831 c -22.7642,-13.77791 -45.5258,-19.46665 -61.4,-19.46665 -20.6658,0 -34.14412,7.78707 -34.14412,21.86248 0,45.82579 113.21452,21.26498 112.91452,96.74075 0,37.43914 -32.945,60.50079 -79.0704,60.50079 -32.94412,0 -64.09284,-13.47666 -85.65824,-33.24498 l 15.27498,-30.54872 c 21.56457,19.76582 48.51913,30.54872 70.98326,30.54872 24.56,0 39.235,-9.28374 39.235,-25.45748 0,-46.72246 -113.21409,-20.6654 -113.21409,-95.24408 0,-35.93998 30.84873,-58.40454 76.37499,-58.40454 27.2558,0 53.9103,8.68708 73.3791,21.5654 z" />
      <path
         inkscape:connector-curvature="0"
         id="path384"
         style="fill:#fec200;fill-rule:evenodd;stroke-width:4.16666317"
         d="m 1002.76,488.0441 c -16.17368,-4.66375 -33.27788,-5.28583 -51.62868,-1.86542 -17.1066,3.10958 -34.835,9.33083 -53.1854,18.97207 -31.7233,16.79582 -53.807,37.3233 -54.1187,37.63372 l 23.7671,-56.02621 c 2.7983,-1.555 12.3121,-7.11166 15.4242,-8.66666 20.8379,-11.19582 41.9866,-18.66081 62.2028,-22.39248 13.9971,-2.48958 27.37,-3.4225 40.4321,-2.17875 z" />
      <path
         inkscape:connector-curvature="0"
         id="path395"
         style="fill:url(#grad1);fill-opacity:0;stroke-width:4.16666317"
         d="m 945.22052,455.69787 c -20.2154,3.73292 -41.3646,11.19833 -62.2025,22.39457 v 0 c -3.1116,1.55458 -12.6262,7.10916 -15.4245,8.66624 v 0 l -23.7642,56.02412 c 0.3113,-0.30833 22.3925,-20.8379 54.1166,-37.63122 v 0 c 18.35,-9.64207 36.0788,-15.86249 53.1854,-18.97248 v 0 c 18.35,-3.42208 35.4541,-2.80083 51.62828,1.86583 l -17.10408,-34.52414 c -3.8992,-0.37167 -7.8234,-0.54792 -11.7846,-0.54792 v 0 c -9.3154,0 -18.8296,0.97959 -28.6504,2.725 z" />
      <path
         inkscape:connector-curvature="0"
         id="path397"
         style="fill:#fec200;fill-rule:evenodd;stroke-width:4.16666317"
         d="m 956.19462,464.0137 -39.5353,-93.14784 -39.535,93.14784 -13.1783,31.44831 -20.0659,47.32246 h -36.8399 l 92.5487,-209.65525 h 36.2399 l 91.64868,209.65525 h -37.73828 l -20.0662,-47.32246 z" />
      <path
         inkscape:connector-curvature="0"
         id="path408"
         style="fill:url(#grad2);fill-opacity:0;stroke-width:4.16666317"
         d="m 935.82762,333.13047 h -36.24 l -92.5487,209.65233 h 36.8417 l 20.0666,-47.31996 13.1758,-31.44789 39.5375,-93.14784 39.5354,93.14784 13.4779,31.44789 20.0666,47.31996 h 37.73628 z" />
      <path
         inkscape:connector-curvature="0"
         id="path410"
         style="fill:#000200;fill-rule:evenodd;stroke-width:4.16666317"
         d="m 559.35373,472.69994 c 27.8529,-10.78291 43.42747,-34.44372 43.42747,-67.98869 0,-45.52538 -30.84873,-71.58244 -84.4591,-71.58244 h -85.06118 v 209.65441 h 35.34039 V 479.58744 447.84163 364.8767 h 49.72079 c 32.34539,0 50.91496,13.17832 50.91496,40.73455 0,25.51039 -14.9304,39.22163 -41.33122,41.78288 v 31.89331 l 38.33539,63.49578 h 40.13497 z" />
    </g>
  </g>
</svg>
